<svg
  xmlns="http://www.w3.org/2000/svg"
  width="25.441"
  height="24.303"
  viewBox="0 0 25.441 24.303"
>
  <g transform="translate(-540.779 -26)">
    <rect width="25" height="4" rx="2" transform="translate(541 26)" />
    <rect width="25" height="4" rx="2" transform="translate(541 34)" />
    <path
      d="M565.917 46.879l-3.249 3.142a1 1 0 01-1.695-.719V47.66h-14.945v1.642a1 1 0 01-1.7.719l-3.248-3.142a1 1 0 010-1.438l3.248-3.142a1 1 0 011.7.719v1.642h14.945v-1.642a1 1 0 011.695-.718l3.249 3.141a1 1 0 01.3.719 1 1 0 01-.3.719z"
    />
  </g>
</svg>
