<svg
  xmlns="http://www.w3.org/2000/svg"
  width="25.157"
  height="24.968"
  viewBox="0 0 25.157 24.968"
>
  <path
    d="M5 8.588l1.824-5.137h.039l1.765 5.137zM5.294 0L0 14h3.1l1.1-3.118h5.235L10.494 14h3.2L8.459 0zM20.51 14l4.647-14H21.98l-3.157 9.843h-.039L15.667 0H12.51l4.529 14zM19.875 23.966v-1.642H5.249v1.642a1 1 0 01-1.7.719L.301 21.543a1 1 0 010-1.437l3.248-3.142a1 1 0 011.7.719v1.641h14.626v-1.641a1 1 0 011.695-.719l3.251 3.142a1 1 0 010 1.437l-3.251 3.142a.98.98 0 01-.688.283 1 1 0 01-1.007-1.002z"
  />
</svg>
