<svg
  xmlns="http://www.w3.org/2000/svg"
  width="36.644"
  height="25.441"
  viewBox="0 0 36.644 25.441"
>
  <g transform="translate(-529.356 -23.439)">
    <rect width="25" height="4" rx="2" transform="translate(541 26)" />
    <rect width="25" height="4" rx="2" transform="translate(541 34)" />
    <rect width="25" height="4" rx="2" transform="translate(541 42)" />
    <path
      d="M534.219 23.743l3.142 3.249a1 1 0 01-.719 1.695H535v14.945h1.642a1 1 0 01.719 1.7l-3.142 3.248a1 1 0 01-1.438 0l-3.142-3.248a1 1 0 01.719-1.7H532V28.687h-1.642a1 1 0 01-.718-1.695l3.141-3.249a1 1 0 01.719-.3 1 1 0 01.719.3z"
    />
  </g>
</svg>
