<svg xmlns="http://www.w3.org/2000/svg" width="33.66" height="18.24"><path data-name="Pfad 22" d="M6.82 2.24V0H4.28a2.126 2.126 0 00-.77.17 2.677 2.677 0 00-.8.5 2.833 2.833 0 00-.63.84 2.587 2.587 0 00-.26 1.19v3.76a1.688 1.688 0 01-.2.85 1.779 1.779 0 01-1.08.86 2.059 2.059 0 01-.54.09V10a2.235 2.235 0 011.14.37 1.681 1.681 0 01.48.51 1.443 1.443 0 01.2.78v3.88a2.587 2.587 0 00.26 1.19 2.833 2.833 0 00.63.84 2.677 2.677 0 00.8.5 2.126 2.126 0 00.77.17h2.54V16H5.74a1.016 1.016 0 01-.57-.14 1.033 1.033 0 01-.33-.35 1.218 1.218 0 01-.15-.47 4.209 4.209 0 01-.03-.48v-3.2a2.13 2.13 0 00-.23-1.05 2.244 2.244 0 00-.54-.66 2.03 2.03 0 00-.65-.36 2.7 2.7 0 00-.56-.13V9.1a3.054 3.054 0 00.56-.12 1.879 1.879 0 00.65-.35 2.122 2.122 0 00.54-.7 2.625 2.625 0 00.23-1.19V3.7a4.365 4.365 0 01.03-.5 1.218 1.218 0 01.15-.47 1.033 1.033 0 01.33-.35 1.016 1.016 0 01.57-.14zm15.08 9.3v3.08h3.14v-3.08zm-6.66 0v3.08h3.14v-3.08zm-6.66 0v3.08h3.14v-3.08zM26.82 16v2.24h2.54a2.126 2.126 0 00.77-.17 2.677 2.677 0 00.8-.5 2.833 2.833 0 00.63-.84 2.587 2.587 0 00.26-1.19v-3.88a1.443 1.443 0 01.2-.78 1.682 1.682 0 01.48-.51 2.052 2.052 0 01.6-.28 2.107 2.107 0 01.56-.09V8.26a2.107 2.107 0 01-.56-.09 1.779 1.779 0 01-1.08-.86 1.688 1.688 0 01-.2-.85V2.7a2.587 2.587 0 00-.26-1.19 2.833 2.833 0 00-.63-.84 2.677 2.677 0 00-.8-.5 2.126 2.126 0 00-.77-.17h-2.54v2.24h1.08a1.016 1.016 0 01.57.14 1.033 1.033 0 01.33.35 1.218 1.218 0 01.15.47 4.365 4.365 0 01.03.5v3.04a2.625 2.625 0 00.23 1.19 2.122 2.122 0 00.54.7 1.879 1.879 0 00.65.35 3.054 3.054 0 00.56.12v.06a2.7 2.7 0 00-.56.13 2.03 2.03 0 00-.65.36 2.244 2.244 0 00-.54.66 2.13 2.13 0 00-.23 1.05v3.2a4.209 4.209 0 01-.03.48 1.218 1.218 0 01-.15.47 1.033 1.033 0 01-.33.35 1.016 1.016 0 01-.57.14z"/></svg>