<svg
  xmlns="http://www.w3.org/2000/svg"
  width="21.135"
  height="10.665"
  viewBox="0 0 21.135 10.665"
>
  <path
    d="M.314 3.396a3.234 3.234 0 01.49-1.627A3.338 3.338 0 011.904.73a4.784 4.784 0 011.5-.559 8.527 8.527 0 011.674-.175 11.36 11.36 0 011.549.108 4.738 4.738 0 011.431.422 2.82 2.82 0 011.059.872 2.438 2.438 0 01.412 1.48v5.278a10.593 10.593 0 00.078 1.314 2.375 2.375 0 00.274.941H7.056a4 4 0 01-.127-.48 4.185 4.185 0 01-.069-.5 3.628 3.628 0 01-1.568.961 6.3 6.3 0 01-1.843.274 4.979 4.979 0 01-1.353-.176 3.1 3.1 0 01-1.1-.549A2.555 2.555 0 01.261 9a3.182 3.182 0 01-.265-1.353 2.955 2.955 0 01.3-1.421 2.541 2.541 0 01.784-.892 3.514 3.514 0 011.1-.5 11.721 11.721 0 011.245-.265q.627-.1 1.235-.157a7.428 7.428 0 001.078-.176 1.88 1.88 0 00.745-.343.753.753 0 00.255-.657 1.477 1.477 0 00-.147-.716 1.081 1.081 0 00-.392-.412 1.543 1.543 0 00-.569-.2 4.653 4.653 0 00-.7-.049 2.113 2.113 0 00-1.294.353 1.575 1.575 0 00-.549 1.176zm6.431 2.059a1.249 1.249 0 01-.441.245 4.506 4.506 0 01-.569.147q-.3.059-.637.1t-.667.1a5.027 5.027 0 00-.618.157 1.826 1.826 0 00-.529.265 1.258 1.258 0 00-.363.422 1.356 1.356 0 00-.137.647 1.31 1.31 0 00.137.627 1.052 1.052 0 00.373.4 1.572 1.572 0 00.549.206 3.5 3.5 0 00.647.059 2.461 2.461 0 001.274-.274 1.836 1.836 0 00.667-.657 2.1 2.1 0 00.265-.774 5.321 5.321 0 00.049-.627zm4.822-2.059a3.234 3.234 0 01.49-1.627 3.338 3.338 0 011.1-1.039 4.784 4.784 0 011.5-.559 8.527 8.527 0 011.674-.175 11.36 11.36 0 011.549.108 4.738 4.738 0 011.431.422 2.82 2.82 0 011.059.872 2.438 2.438 0 01.412 1.48v5.278a10.593 10.593 0 00.074 1.313 2.375 2.375 0 00.274.941h-2.818a3.993 3.993 0 01-.127-.48 4.184 4.184 0 01-.069-.5 3.628 3.628 0 01-1.568.961 6.3 6.3 0 01-1.843.274 4.979 4.979 0 01-1.353-.176 3.1 3.1 0 01-1.1-.549 2.555 2.555 0 01-.735-.941 3.182 3.182 0 01-.261-1.353 2.955 2.955 0 01.3-1.421 2.541 2.541 0 01.784-.892 3.514 3.514 0 011.1-.5 11.721 11.721 0 011.245-.265q.627-.1 1.235-.157a7.427 7.427 0 001.078-.176 1.88 1.88 0 00.745-.343.753.753 0 00.255-.657 1.477 1.477 0 00-.147-.716 1.081 1.081 0 00-.392-.412 1.542 1.542 0 00-.569-.2 4.652 4.652 0 00-.7-.049 2.113 2.113 0 00-1.294.353 1.575 1.575 0 00-.54 1.185zm6.431 2.059a1.249 1.249 0 01-.441.245 4.505 4.505 0 01-.569.147q-.3.059-.637.1t-.667.1a5.028 5.028 0 00-.618.157 1.826 1.826 0 00-.529.265 1.258 1.258 0 00-.363.422 1.356 1.356 0 00-.137.647 1.31 1.31 0 00.137.627 1.052 1.052 0 00.372.4 1.572 1.572 0 00.549.206 3.5 3.5 0 00.647.059 2.461 2.461 0 001.274-.274 1.836 1.836 0 00.667-.657 2.1 2.1 0 00.265-.774 5.322 5.322 0 00.049-.627z"
  />
</svg>
