<svg xmlns="http://www.w3.org/2000/svg" width="24.54" height="14.54"><path d="M5.1 8.76l1.86-5.24H7l1.8 5.24zM5.4 0L0 14.28h3.16l1.12-3.18h5.34l1.08 3.18h3.26L8.62 0zm9.38 7.12a3.3 3.3 0 01.5-1.66A3.4 3.4 0 0116.4 4.4a4.881 4.881 0 011.53-.57 8.7 8.7 0 011.71-.17 11.589 11.589 0 011.58.11 4.833 4.833 0 011.46.43 2.877 2.877 0 011.08.89 2.487 2.487 0 01.42 1.51v5.38a10.8 10.8 0 00.08 1.34 2.422 2.422 0 00.28.96h-2.88a4.075 4.075 0 01-.13-.49 4.267 4.267 0 01-.07-.51 3.7 3.7 0 01-1.6.98 6.422 6.422 0 01-1.88.28 5.079 5.079 0 01-1.38-.18 3.16 3.16 0 01-1.12-.56 2.607 2.607 0 01-.75-.96 3.246 3.246 0 01-.27-1.38 3.015 3.015 0 01.31-1.45 2.592 2.592 0 01.8-.91 3.584 3.584 0 011.12-.51 11.956 11.956 0 011.27-.27q.64-.1 1.26-.16a7.577 7.577 0 001.1-.18 1.918 1.918 0 00.76-.35.768.768 0 00.26-.67 1.507 1.507 0 00-.15-.73 1.1 1.1 0 00-.4-.42 1.574 1.574 0 00-.58-.2 4.746 4.746 0 00-.71-.05 2.156 2.156 0 00-1.32.36 1.607 1.607 0 00-.56 1.2zm6.56 2.1a1.274 1.274 0 01-.45.25 4.6 4.6 0 01-.58.15q-.31.06-.65.1t-.68.1a5.129 5.129 0 00-.63.16 1.863 1.863 0 00-.54.27 1.283 1.283 0 00-.37.43 1.383 1.383 0 00-.14.66 1.336 1.336 0 00.14.64 1.073 1.073 0 00.38.41 1.6 1.6 0 00.56.21 3.574 3.574 0 00.66.06 2.511 2.511 0 001.3-.28 1.873 1.873 0 00.68-.67 2.143 2.143 0 00.27-.79 5.427 5.427 0 00.05-.64z"/></svg>