<svg
  xmlns="http://www.w3.org/2000/svg"
  width="24.627"
  height="24.506"
  viewBox="0 0 24.627 24.506"
>
  <path
    d="M.94 23.567a1.5 1.5 0 010-2.121L21.446.94a1.5 1.5 0 012.121 0 1.5 1.5 0 010 2.121L3.061 23.567a1.5 1.5 0 01-2.121 0zm23-2.588H13.099v-6.035l3.14-3.14v.595h6.92v2.44h-6.92v3.5h7.7v2.64h0zm-12.981 0h-2.88a4.018 4.018 0 01-.13-.49 3.842 3.842 0 01-.054-.341l2.7-2.7v1.231a10.973 10.973 0 00.084 1.34 2.433 2.433 0 00.28.958h0zm-9.715-1.254q-.05-.092-.095-.186a3.265 3.265 0 01-.27-1.38 3.033 3.033 0 01.31-1.45 2.607 2.607 0 01.8-.91 3.575 3.575 0 011.12-.51 11.988 11.988 0 011.27-.27 21.7 21.7 0 011.26-.16 9.31 9.31 0 00.542-.068l-4.935 4.934h0zm2.794-5.906H1.199a3.319 3.319 0 01.5-1.66 3.415 3.415 0 011.12-1.06 4.9 4.9 0 011.53-.57 8.765 8.765 0 011.71-.17 11.716 11.716 0 011.58.11 4.824 4.824 0 011.46.43 3.024 3.024 0 01.595.378l-1.972 1.972a1.13 1.13 0 00-.113-.32 1.107 1.107 0 00-.4-.419 1.6 1.6 0 00-.58-.2 4.708 4.708 0 00-.709-.049 2.164 2.164 0 00-1.32.36 1.611 1.611 0 00-.56 1.2h0zm19.741-4.48h-5.075l2.64-2.64h2.435v2.639h0zm-14.38-.3h-2.7v-2.34h2.7v2.339h0zm-4.12 0h-2.7v-2.34h2.7v2.339h0zm7.82-1.169V6.699h1.174l-1.172 1.172h0zm3.591-3.59l-2.211-2.401h3.12l.559.934-1.466 1.466h0z"
    stroke="rgba(0,0,0,0)"
  />
</svg>
